<mxfile host="app.diagrams.net" modified="2023-08-31T21:20:23.118Z" agent="Mozilla/5.0 (Windows NT 10.0; Win64; x64; rv:109.0) Gecko/20100101 Firefox/116.0" etag="4FRkMHTHf8RizvP42v7S" version="21.7.1" type="device">
  <diagram name="Page-1" id="3vcJqvHodvODiSUqC1Al">
    <mxGraphModel dx="1674" dy="746" grid="1" gridSize="10" guides="1" tooltips="1" connect="1" arrows="1" fold="1" page="1" pageScale="1" pageWidth="850" pageHeight="1100" math="0" shadow="0">
      <root>
        <mxCell id="0" />
        <mxCell id="1" parent="0" />
        <mxCell id="OoP7FD-r4KorU-pFO8hX-7" value="DNS-shared VPC" style="shape=mxgraph.ibm.box;prType=cloud;fontStyle=0;verticalAlign=top;align=left;spacingLeft=32;spacingTop=4;fillColor=none;rounded=0;whiteSpace=wrap;html=1;strokeColor=#4376BB;strokeWidth=3;dashed=0;container=1;spacing=-4;collapsible=0;expand=0;recursiveResize=0;" parent="1" vertex="1">
          <mxGeometry x="320" y="40" width="260" height="200" as="geometry" />
        </mxCell>
        <mxCell id="OoP7FD-r4KorU-pFO8hX-11" value="" style="sketch=0;pointerEvents=1;shadow=0;dashed=0;html=1;strokeColor=none;labelPosition=center;verticalLabelPosition=bottom;verticalAlign=top;outlineConnect=0;align=center;shape=mxgraph.office.servers.virtual_web_server;fillColor=#2072B8;" parent="OoP7FD-r4KorU-pFO8hX-7" vertex="1">
          <mxGeometry x="110" y="40" width="42" height="55" as="geometry" />
        </mxCell>
        <mxCell id="OoP7FD-r4KorU-pFO8hX-58" value="" style="image;aspect=fixed;html=1;points=[];align=center;fontSize=12;image=img/lib/azure2/networking/Private_Endpoint.svg;" parent="OoP7FD-r4KorU-pFO8hX-7" vertex="1">
          <mxGeometry x="165.5" y="132.42000000000002" width="41" height="37.58" as="geometry" />
        </mxCell>
        <mxCell id="OoP7FD-r4KorU-pFO8hX-109" style="edgeStyle=orthogonalEdgeStyle;rounded=0;orthogonalLoop=1;jettySize=auto;html=1;exitX=0.5;exitY=1;exitDx=0;exitDy=0;strokeColor=#B5739D;" parent="OoP7FD-r4KorU-pFO8hX-7" source="OoP7FD-r4KorU-pFO8hX-60" edge="1">
          <mxGeometry relative="1" as="geometry">
            <mxPoint x="430" y="60" as="targetPoint" />
            <Array as="points">
              <mxPoint x="190" y="220" />
              <mxPoint x="360" y="220" />
              <mxPoint x="360" y="60" />
            </Array>
          </mxGeometry>
        </mxCell>
        <mxCell id="OoP7FD-r4KorU-pFO8hX-60" value="IKS Master VPE" style="text;strokeColor=none;align=center;fillColor=none;html=1;verticalAlign=middle;whiteSpace=wrap;rounded=0;" parent="OoP7FD-r4KorU-pFO8hX-7" vertex="1">
          <mxGeometry x="120" y="170.00000000000006" width="140" height="30" as="geometry" />
        </mxCell>
        <mxCell id="OoP7FD-r4KorU-pFO8hX-10" value="" style="image;aspect=fixed;html=1;points=[];align=center;fontSize=12;image=img/lib/azure2/networking/DNS_Private_Resolver.svg;" parent="OoP7FD-r4KorU-pFO8hX-7" vertex="1">
          <mxGeometry x="180" y="15" width="56.66" height="50" as="geometry" />
        </mxCell>
        <mxCell id="OoP7FD-r4KorU-pFO8hX-46" value="IBM custom resolver" style="text;strokeColor=none;align=center;fillColor=none;html=1;verticalAlign=middle;whiteSpace=wrap;rounded=0;" parent="OoP7FD-r4KorU-pFO8hX-7" vertex="1">
          <mxGeometry x="180.9999999999999" y="80" width="60" height="30" as="geometry" />
        </mxCell>
        <mxCell id="OoP7FD-r4KorU-pFO8hX-59" value="" style="image;aspect=fixed;html=1;points=[];align=center;fontSize=12;image=img/lib/azure2/networking/Private_Endpoint.svg;" parent="OoP7FD-r4KorU-pFO8hX-7" vertex="1">
          <mxGeometry x="39.5" y="134.42000000000002" width="41" height="37.58" as="geometry" />
        </mxCell>
        <mxCell id="OoP7FD-r4KorU-pFO8hX-61" value="ICD VPE" style="text;strokeColor=none;align=center;fillColor=none;html=1;verticalAlign=middle;whiteSpace=wrap;rounded=0;" parent="OoP7FD-r4KorU-pFO8hX-7" vertex="1">
          <mxGeometry x="30" y="171" width="60" height="30" as="geometry" />
        </mxCell>
        <mxCell id="OoP7FD-r4KorU-pFO8hX-108" value="" style="endArrow=classic;html=1;rounded=0;strokeColor=#B5739D;" parent="OoP7FD-r4KorU-pFO8hX-7" source="OoP7FD-r4KorU-pFO8hX-11" target="OoP7FD-r4KorU-pFO8hX-59" edge="1">
          <mxGeometry width="50" height="50" relative="1" as="geometry">
            <mxPoint x="180" y="410" as="sourcePoint" />
            <mxPoint x="230" y="360" as="targetPoint" />
          </mxGeometry>
        </mxCell>
        <mxCell id="OoP7FD-r4KorU-pFO8hX-113" value="" style="endArrow=classic;html=1;rounded=0;strokeColor=#B5739D;" parent="OoP7FD-r4KorU-pFO8hX-7" source="OoP7FD-r4KorU-pFO8hX-11" target="OoP7FD-r4KorU-pFO8hX-58" edge="1">
          <mxGeometry width="50" height="50" relative="1" as="geometry">
            <mxPoint x="190" y="410" as="sourcePoint" />
            <mxPoint x="240" y="360" as="targetPoint" />
          </mxGeometry>
        </mxCell>
        <mxCell id="OoP7FD-r4KorU-pFO8hX-114" value="Virtual server" style="text;strokeColor=none;align=center;fillColor=none;html=1;verticalAlign=middle;whiteSpace=wrap;rounded=0;" parent="OoP7FD-r4KorU-pFO8hX-7" vertex="1">
          <mxGeometry x="100" y="104.41999999999999" width="60" height="30" as="geometry" />
        </mxCell>
        <mxCell id="OoP7FD-r4KorU-pFO8hX-14" value="DNS-shared VPC" style="shape=mxgraph.ibm.box;prType=cloud;fontStyle=0;verticalAlign=top;align=left;spacingLeft=32;spacingTop=4;fillColor=none;rounded=0;whiteSpace=wrap;html=1;strokeColor=#4376BB;strokeWidth=3;dashed=0;container=1;spacing=-4;collapsible=0;expand=0;recursiveResize=0;" parent="1" vertex="1">
          <mxGeometry x="320" y="280" width="260" height="200" as="geometry" />
        </mxCell>
        <mxCell id="OoP7FD-r4KorU-pFO8hX-15" value="" style="sketch=0;pointerEvents=1;shadow=0;dashed=0;html=1;strokeColor=none;labelPosition=center;verticalLabelPosition=bottom;verticalAlign=top;outlineConnect=0;align=center;shape=mxgraph.office.servers.virtual_web_server;fillColor=#2072B8;" parent="OoP7FD-r4KorU-pFO8hX-14" vertex="1">
          <mxGeometry x="112.5" y="35" width="44" height="55" as="geometry" />
        </mxCell>
        <mxCell id="OoP7FD-r4KorU-pFO8hX-16" value="" style="image;aspect=fixed;html=1;points=[];align=center;fontSize=12;image=img/lib/azure2/networking/Private_Endpoint.svg;" parent="OoP7FD-r4KorU-pFO8hX-14" vertex="1">
          <mxGeometry x="50" y="134" width="41" height="37.58" as="geometry" />
        </mxCell>
        <mxCell id="OoP7FD-r4KorU-pFO8hX-17" value="" style="image;aspect=fixed;html=1;points=[];align=center;fontSize=12;image=img/lib/azure2/networking/Private_Endpoint.svg;" parent="OoP7FD-r4KorU-pFO8hX-14" vertex="1">
          <mxGeometry x="166" y="134" width="41" height="37.58" as="geometry" />
        </mxCell>
        <mxCell id="OoP7FD-r4KorU-pFO8hX-50" value="IKS Master VPE" style="text;strokeColor=none;align=center;fillColor=none;html=1;verticalAlign=middle;whiteSpace=wrap;rounded=0;" parent="OoP7FD-r4KorU-pFO8hX-14" vertex="1">
          <mxGeometry x="116.5" y="170.00000000000003" width="140" height="30" as="geometry" />
        </mxCell>
        <mxCell id="OoP7FD-r4KorU-pFO8hX-18" value="" style="image;aspect=fixed;html=1;points=[];align=center;fontSize=12;image=img/lib/azure2/networking/DNS_Private_Resolver.svg;" parent="OoP7FD-r4KorU-pFO8hX-14" vertex="1">
          <mxGeometry x="181.67000000000002" y="15" width="56.66" height="50" as="geometry" />
        </mxCell>
        <mxCell id="OoP7FD-r4KorU-pFO8hX-47" value="IBM custom resolver" style="text;strokeColor=none;align=center;fillColor=none;html=1;verticalAlign=middle;whiteSpace=wrap;rounded=0;" parent="OoP7FD-r4KorU-pFO8hX-14" vertex="1">
          <mxGeometry x="179.9999999999999" y="80" width="60" height="30" as="geometry" />
        </mxCell>
        <mxCell id="OoP7FD-r4KorU-pFO8hX-115" value="" style="endArrow=classic;html=1;rounded=0;" parent="OoP7FD-r4KorU-pFO8hX-14" source="OoP7FD-r4KorU-pFO8hX-15" target="OoP7FD-r4KorU-pFO8hX-17" edge="1">
          <mxGeometry width="50" height="50" relative="1" as="geometry">
            <mxPoint x="280" y="130" as="sourcePoint" />
            <mxPoint x="250" y="130" as="targetPoint" />
          </mxGeometry>
        </mxCell>
        <mxCell id="OoP7FD-r4KorU-pFO8hX-117" value="" style="endArrow=classic;html=1;rounded=0;" parent="OoP7FD-r4KorU-pFO8hX-14" source="OoP7FD-r4KorU-pFO8hX-15" target="OoP7FD-r4KorU-pFO8hX-16" edge="1">
          <mxGeometry width="50" height="50" relative="1" as="geometry">
            <mxPoint x="200" y="190" as="sourcePoint" />
            <mxPoint x="250" y="140" as="targetPoint" />
          </mxGeometry>
        </mxCell>
        <mxCell id="OoP7FD-r4KorU-pFO8hX-87" value="Virtual server" style="text;strokeColor=none;align=center;fillColor=none;html=1;verticalAlign=middle;whiteSpace=wrap;rounded=0;" parent="OoP7FD-r4KorU-pFO8hX-14" vertex="1">
          <mxGeometry x="104.5" y="100" width="60" height="30" as="geometry" />
        </mxCell>
        <mxCell id="OoP7FD-r4KorU-pFO8hX-51" value="ICD VPE" style="text;strokeColor=none;align=center;fillColor=none;html=1;verticalAlign=middle;whiteSpace=wrap;rounded=0;" parent="OoP7FD-r4KorU-pFO8hX-14" vertex="1">
          <mxGeometry x="40.5" y="170" width="60" height="30" as="geometry" />
        </mxCell>
        <mxCell id="OoP7FD-r4KorU-pFO8hX-25" value="DNS-shared VPC" style="shape=mxgraph.ibm.box;prType=cloud;fontStyle=0;verticalAlign=top;align=left;spacingLeft=32;spacingTop=4;fillColor=none;rounded=0;whiteSpace=wrap;html=1;strokeColor=#4376BB;strokeWidth=3;dashed=0;container=1;spacing=-4;collapsible=0;expand=0;recursiveResize=0;" parent="1" vertex="1">
          <mxGeometry x="320" y="520" width="260" height="200" as="geometry" />
        </mxCell>
        <mxCell id="OoP7FD-r4KorU-pFO8hX-62" value="" style="image;aspect=fixed;html=1;points=[];align=center;fontSize=12;image=img/lib/azure2/networking/Private_Endpoint.svg;" parent="OoP7FD-r4KorU-pFO8hX-25" vertex="1">
          <mxGeometry x="55.5" y="132.41999999999996" width="41" height="37.58" as="geometry" />
        </mxCell>
        <mxCell id="OoP7FD-r4KorU-pFO8hX-63" value="" style="image;aspect=fixed;html=1;points=[];align=center;fontSize=12;image=img/lib/azure2/networking/Private_Endpoint.svg;" parent="OoP7FD-r4KorU-pFO8hX-25" vertex="1">
          <mxGeometry x="171.5" y="132.41999999999996" width="41" height="37.58" as="geometry" />
        </mxCell>
        <mxCell id="OoP7FD-r4KorU-pFO8hX-64" value="IKS Master VPE" style="text;strokeColor=none;align=center;fillColor=none;html=1;verticalAlign=middle;whiteSpace=wrap;rounded=0;" parent="OoP7FD-r4KorU-pFO8hX-25" vertex="1">
          <mxGeometry x="10" y="170" width="140" height="30" as="geometry" />
        </mxCell>
        <mxCell id="OoP7FD-r4KorU-pFO8hX-65" value="ICD VPE" style="text;strokeColor=none;align=center;fillColor=none;html=1;verticalAlign=middle;whiteSpace=wrap;rounded=0;" parent="OoP7FD-r4KorU-pFO8hX-25" vertex="1">
          <mxGeometry x="162" y="169" width="60" height="30" as="geometry" />
        </mxCell>
        <mxCell id="OoP7FD-r4KorU-pFO8hX-29" value="" style="image;aspect=fixed;html=1;points=[];align=center;fontSize=12;image=img/lib/azure2/networking/DNS_Private_Resolver.svg;" parent="OoP7FD-r4KorU-pFO8hX-25" vertex="1">
          <mxGeometry x="180" y="11" width="56.66" height="50" as="geometry" />
        </mxCell>
        <mxCell id="OoP7FD-r4KorU-pFO8hX-48" value="IBM custom resolver" style="text;strokeColor=none;align=center;fillColor=none;html=1;verticalAlign=middle;whiteSpace=wrap;rounded=0;" parent="OoP7FD-r4KorU-pFO8hX-25" vertex="1">
          <mxGeometry x="179.9999999999999" y="74" width="60" height="30" as="geometry" />
        </mxCell>
        <mxCell id="OoP7FD-r4KorU-pFO8hX-125" value="" style="sketch=0;pointerEvents=1;shadow=0;dashed=0;html=1;strokeColor=none;labelPosition=center;verticalLabelPosition=bottom;verticalAlign=top;outlineConnect=0;align=center;shape=mxgraph.office.servers.virtual_web_server;fillColor=#2072B8;" parent="OoP7FD-r4KorU-pFO8hX-25" vertex="1">
          <mxGeometry x="118" y="36" width="44" height="55" as="geometry" />
        </mxCell>
        <mxCell id="OoP7FD-r4KorU-pFO8hX-126" value="" style="endArrow=classic;html=1;rounded=0;entryX=0.744;entryY=0.015;entryDx=0;entryDy=0;entryPerimeter=0;" parent="OoP7FD-r4KorU-pFO8hX-25" source="OoP7FD-r4KorU-pFO8hX-125" target="OoP7FD-r4KorU-pFO8hX-62" edge="1">
          <mxGeometry width="50" height="50" relative="1" as="geometry">
            <mxPoint x="190" y="-40" as="sourcePoint" />
            <mxPoint x="240" y="-90" as="targetPoint" />
          </mxGeometry>
        </mxCell>
        <mxCell id="OoP7FD-r4KorU-pFO8hX-127" value="" style="endArrow=classic;html=1;rounded=0;" parent="OoP7FD-r4KorU-pFO8hX-25" source="OoP7FD-r4KorU-pFO8hX-125" target="OoP7FD-r4KorU-pFO8hX-63" edge="1">
          <mxGeometry width="50" height="50" relative="1" as="geometry">
            <mxPoint x="190" y="-40" as="sourcePoint" />
            <mxPoint x="240" y="-90" as="targetPoint" />
          </mxGeometry>
        </mxCell>
        <mxCell id="OoP7FD-r4KorU-pFO8hX-30" value="" style="image;aspect=fixed;perimeter=ellipsePerimeter;html=1;align=center;shadow=0;dashed=0;fontColor=#4277BB;labelBackgroundColor=default;fontSize=12;spacingTop=3;image=img/lib/ibm/vpc/TransitGateway.svg;" parent="1" vertex="1">
          <mxGeometry x="112" y="688" width="97" height="97" as="geometry" />
        </mxCell>
        <mxCell id="OoP7FD-r4KorU-pFO8hX-31" value="Hub VPC&lt;br&gt;" style="shape=mxgraph.ibm.box;prType=cloud;fontStyle=0;verticalAlign=top;align=left;spacingLeft=32;spacingTop=4;fillColor=none;rounded=0;whiteSpace=wrap;html=1;strokeColor=#4376BB;strokeWidth=3;dashed=0;container=1;spacing=-4;collapsible=0;expand=0;recursiveResize=0;" parent="1" vertex="1">
          <mxGeometry x="320" y="800" width="360" height="200" as="geometry" />
        </mxCell>
        <mxCell id="OoP7FD-r4KorU-pFO8hX-33" value="" style="image;aspect=fixed;html=1;points=[];align=center;fontSize=12;image=img/lib/azure2/networking/Private_Endpoint.svg;" parent="OoP7FD-r4KorU-pFO8hX-31" vertex="1">
          <mxGeometry x="201.5" y="109" width="41" height="37.58" as="geometry" />
        </mxCell>
        <mxCell id="OoP7FD-r4KorU-pFO8hX-34" value="" style="image;aspect=fixed;html=1;points=[];align=center;fontSize=12;image=img/lib/azure2/networking/Private_Endpoint.svg;" parent="OoP7FD-r4KorU-pFO8hX-31" vertex="1">
          <mxGeometry x="252" y="18.71" width="41" height="37.58" as="geometry" />
        </mxCell>
        <mxCell id="OoP7FD-r4KorU-pFO8hX-35" value="" style="image;aspect=fixed;html=1;points=[];align=center;fontSize=12;image=img/lib/azure2/networking/Private_Endpoint.svg;" parent="OoP7FD-r4KorU-pFO8hX-31" vertex="1">
          <mxGeometry x="85" y="18.71" width="41" height="37.58" as="geometry" />
        </mxCell>
        <mxCell id="OoP7FD-r4KorU-pFO8hX-36" value="" style="image;aspect=fixed;html=1;points=[];align=center;fontSize=12;image=img/lib/azure2/networking/Private_Endpoint.svg;" parent="OoP7FD-r4KorU-pFO8hX-31" vertex="1">
          <mxGeometry x="120" y="109" width="41" height="37.58" as="geometry" />
        </mxCell>
        <mxCell id="OoP7FD-r4KorU-pFO8hX-80" value="BSS&lt;br&gt;VPE" style="text;strokeColor=none;align=center;fillColor=none;html=1;verticalAlign=middle;whiteSpace=wrap;rounded=0;" parent="OoP7FD-r4KorU-pFO8hX-31" vertex="1">
          <mxGeometry x="110.5" y="158" width="60" height="30" as="geometry" />
        </mxCell>
        <mxCell id="OoP7FD-r4KorU-pFO8hX-81" value="IBM &lt;br&gt;VPE" style="text;strokeColor=none;align=center;fillColor=none;html=1;verticalAlign=middle;whiteSpace=wrap;rounded=0;" parent="OoP7FD-r4KorU-pFO8hX-31" vertex="1">
          <mxGeometry x="75.5" y="65" width="60" height="30" as="geometry" />
        </mxCell>
        <mxCell id="OoP7FD-r4KorU-pFO8hX-82" value="COS&lt;br&gt;VPE" style="text;strokeColor=none;align=center;fillColor=none;html=1;verticalAlign=middle;whiteSpace=wrap;rounded=0;" parent="OoP7FD-r4KorU-pFO8hX-31" vertex="1">
          <mxGeometry x="192" y="157" width="60" height="30" as="geometry" />
        </mxCell>
        <mxCell id="OoP7FD-r4KorU-pFO8hX-83" value="Container Registry VPE" style="text;strokeColor=none;align=center;fillColor=none;html=1;verticalAlign=middle;whiteSpace=wrap;rounded=0;" parent="OoP7FD-r4KorU-pFO8hX-31" vertex="1">
          <mxGeometry x="242.5" y="68" width="60" height="30" as="geometry" />
        </mxCell>
        <mxCell id="OoP7FD-r4KorU-pFO8hX-32" value="" style="sketch=0;pointerEvents=1;shadow=0;dashed=0;html=1;strokeColor=none;labelPosition=center;verticalLabelPosition=bottom;verticalAlign=top;outlineConnect=0;align=center;shape=mxgraph.office.servers.virtual_web_server;fillColor=#2072B8;" parent="OoP7FD-r4KorU-pFO8hX-31" vertex="1">
          <mxGeometry x="166" y="10" width="44" height="55" as="geometry" />
        </mxCell>
        <mxCell id="OoP7FD-r4KorU-pFO8hX-84" value="Virtual server" style="text;strokeColor=none;align=center;fillColor=none;html=1;verticalAlign=middle;whiteSpace=wrap;rounded=0;" parent="OoP7FD-r4KorU-pFO8hX-31" vertex="1">
          <mxGeometry x="152" y="68" width="60" height="30" as="geometry" />
        </mxCell>
        <mxCell id="OoP7FD-r4KorU-pFO8hX-157" value="" style="endArrow=classic;html=1;rounded=0;" parent="OoP7FD-r4KorU-pFO8hX-31" source="OoP7FD-r4KorU-pFO8hX-84" target="OoP7FD-r4KorU-pFO8hX-36" edge="1">
          <mxGeometry width="50" height="50" relative="1" as="geometry">
            <mxPoint x="190" y="-100" as="sourcePoint" />
            <mxPoint x="240" y="-150" as="targetPoint" />
          </mxGeometry>
        </mxCell>
        <mxCell id="OoP7FD-r4KorU-pFO8hX-158" value="" style="endArrow=classic;html=1;rounded=0;exitX=0.75;exitY=1;exitDx=0;exitDy=0;" parent="OoP7FD-r4KorU-pFO8hX-31" source="OoP7FD-r4KorU-pFO8hX-84" target="OoP7FD-r4KorU-pFO8hX-33" edge="1">
          <mxGeometry width="50" height="50" relative="1" as="geometry">
            <mxPoint x="190" y="-100" as="sourcePoint" />
            <mxPoint x="240" y="-150" as="targetPoint" />
          </mxGeometry>
        </mxCell>
        <mxCell id="OoP7FD-r4KorU-pFO8hX-37" value="" style="image;aspect=fixed;html=1;points=[];align=center;fontSize=12;image=img/lib/azure2/networking/DNS_Private_Resolver.svg;" parent="OoP7FD-r4KorU-pFO8hX-31" vertex="1">
          <mxGeometry x="33" y="109" width="46.33" height="40.88" as="geometry" />
        </mxCell>
        <mxCell id="OoP7FD-r4KorU-pFO8hX-49" value="IBM custom resolver" style="text;strokeColor=none;align=center;fillColor=none;html=1;verticalAlign=middle;whiteSpace=wrap;rounded=0;" parent="OoP7FD-r4KorU-pFO8hX-31" vertex="1">
          <mxGeometry x="20.659999999999968" y="158" width="71" height="30" as="geometry" />
        </mxCell>
        <mxCell id="OoP7FD-r4KorU-pFO8hX-38" value="" style="image;sketch=0;aspect=fixed;html=1;points=[];align=center;fontSize=12;image=img/lib/mscae/DNS_Private_Zones.svg;" parent="1" vertex="1">
          <mxGeometry x="353" y="1050" width="50" height="50" as="geometry" />
        </mxCell>
        <mxCell id="OoP7FD-r4KorU-pFO8hX-39" value="" style="image;aspect=fixed;html=1;points=[];align=center;fontSize=12;image=img/lib/azure2/other/Exchange_On_Premises_Access.svg;" parent="1" vertex="1">
          <mxGeometry x="30" y="414" width="40" height="68" as="geometry" />
        </mxCell>
        <mxCell id="OoP7FD-r4KorU-pFO8hX-40" value="" style="image;aspect=fixed;perimeter=ellipsePerimeter;html=1;align=center;shadow=0;dashed=0;fontColor=#4277BB;labelBackgroundColor=default;fontSize=12;spacingTop=3;image=img/lib/ibm/infrastructure/infrastructure_services.svg;" parent="1" vertex="1">
          <mxGeometry x="760" y="75" width="60" height="60" as="geometry" />
        </mxCell>
        <mxCell id="OoP7FD-r4KorU-pFO8hX-66" value="IBM IKS Master" style="text;strokeColor=none;align=center;fillColor=none;html=1;verticalAlign=middle;whiteSpace=wrap;rounded=0;" parent="1" vertex="1">
          <mxGeometry x="745" y="135" width="90" height="30" as="geometry" />
        </mxCell>
        <mxCell id="OoP7FD-r4KorU-pFO8hX-67" value="" style="image;aspect=fixed;perimeter=ellipsePerimeter;html=1;align=center;shadow=0;dashed=0;fontColor=#4277BB;labelBackgroundColor=default;fontSize=12;spacingTop=3;image=img/lib/ibm/infrastructure/infrastructure_services.svg;" parent="1" vertex="1">
          <mxGeometry x="760" y="180" width="60" height="60" as="geometry" />
        </mxCell>
        <mxCell id="OoP7FD-r4KorU-pFO8hX-68" value="IBM ICD Service" style="text;strokeColor=none;align=center;fillColor=none;html=1;verticalAlign=middle;whiteSpace=wrap;rounded=0;" parent="1" vertex="1">
          <mxGeometry x="745" y="240" width="95" height="30" as="geometry" />
        </mxCell>
        <mxCell id="OoP7FD-r4KorU-pFO8hX-69" value="" style="image;aspect=fixed;perimeter=ellipsePerimeter;html=1;align=center;shadow=0;dashed=0;fontColor=#4277BB;labelBackgroundColor=default;fontSize=12;spacingTop=3;image=img/lib/ibm/infrastructure/infrastructure_services.svg;" parent="1" vertex="1">
          <mxGeometry x="757" y="392" width="60" height="60" as="geometry" />
        </mxCell>
        <mxCell id="OoP7FD-r4KorU-pFO8hX-70" value="IBM COS Service" style="text;strokeColor=none;align=center;fillColor=none;html=1;verticalAlign=middle;whiteSpace=wrap;rounded=0;" parent="1" vertex="1">
          <mxGeometry x="731" y="452" width="115" height="30" as="geometry" />
        </mxCell>
        <mxCell id="OoP7FD-r4KorU-pFO8hX-71" value="" style="image;aspect=fixed;perimeter=ellipsePerimeter;html=1;align=center;shadow=0;dashed=0;fontColor=#4277BB;labelBackgroundColor=default;fontSize=12;spacingTop=3;image=img/lib/ibm/infrastructure/infrastructure_services.svg;" parent="1" vertex="1">
          <mxGeometry x="758.5" y="290" width="60" height="60" as="geometry" />
        </mxCell>
        <mxCell id="OoP7FD-r4KorU-pFO8hX-72" value="IBM IAM Service" style="text;strokeColor=none;align=center;fillColor=none;html=1;verticalAlign=middle;whiteSpace=wrap;rounded=0;" parent="1" vertex="1">
          <mxGeometry x="742.5" y="350" width="95" height="30" as="geometry" />
        </mxCell>
        <mxCell id="OoP7FD-r4KorU-pFO8hX-73" value="" style="image;aspect=fixed;perimeter=ellipsePerimeter;html=1;align=center;shadow=0;dashed=0;fontColor=#4277BB;labelBackgroundColor=default;fontSize=12;spacingTop=3;image=img/lib/ibm/infrastructure/infrastructure_services.svg;" parent="1" vertex="1">
          <mxGeometry x="760" y="503" width="60" height="60" as="geometry" />
        </mxCell>
        <mxCell id="OoP7FD-r4KorU-pFO8hX-74" value="IBM BSS Service" style="text;strokeColor=none;align=center;fillColor=none;html=1;verticalAlign=middle;whiteSpace=wrap;rounded=0;" parent="1" vertex="1">
          <mxGeometry x="738" y="563" width="105" height="30" as="geometry" />
        </mxCell>
        <mxCell id="OoP7FD-r4KorU-pFO8hX-75" value="" style="image;aspect=fixed;perimeter=ellipsePerimeter;html=1;align=center;shadow=0;dashed=0;fontColor=#4277BB;labelBackgroundColor=default;fontSize=12;spacingTop=3;image=img/lib/ibm/infrastructure/infrastructure_services.svg;" parent="1" vertex="1">
          <mxGeometry x="760" y="613" width="60" height="60" as="geometry" />
        </mxCell>
        <mxCell id="OoP7FD-r4KorU-pFO8hX-76" value="IBM Container Registry Service" style="text;strokeColor=none;align=center;fillColor=none;html=1;verticalAlign=middle;whiteSpace=wrap;rounded=0;" parent="1" vertex="1">
          <mxGeometry x="745" y="678" width="90" height="30" as="geometry" />
        </mxCell>
        <mxCell id="OoP7FD-r4KorU-pFO8hX-97" style="edgeStyle=orthogonalEdgeStyle;rounded=0;orthogonalLoop=1;jettySize=auto;html=1;" parent="1" edge="1">
          <mxGeometry relative="1" as="geometry">
            <mxPoint x="340" y="960" as="targetPoint" />
            <mxPoint x="29" y="520" as="sourcePoint" />
            <Array as="points">
              <mxPoint x="29" y="960" />
              <mxPoint x="341" y="960" />
            </Array>
          </mxGeometry>
        </mxCell>
        <mxCell id="OoP7FD-r4KorU-pFO8hX-98" style="edgeStyle=orthogonalEdgeStyle;rounded=0;orthogonalLoop=1;jettySize=auto;html=1;strokeColor=#FFD966;" parent="1" edge="1">
          <mxGeometry relative="1" as="geometry">
            <mxPoint x="340" y="930" as="targetPoint" />
            <mxPoint x="50" y="520" as="sourcePoint" />
            <Array as="points">
              <mxPoint x="50" y="930" />
            </Array>
          </mxGeometry>
        </mxCell>
        <mxCell id="OoP7FD-r4KorU-pFO8hX-107" style="edgeStyle=orthogonalEdgeStyle;rounded=0;orthogonalLoop=1;jettySize=auto;html=1;strokeColor=#B5739D;" parent="1" edge="1">
          <mxGeometry relative="1" as="geometry">
            <mxPoint x="390" y="847" as="targetPoint" />
            <mxPoint x="70" y="520" as="sourcePoint" />
            <Array as="points">
              <mxPoint x="70" y="847" />
            </Array>
          </mxGeometry>
        </mxCell>
        <mxCell id="OoP7FD-r4KorU-pFO8hX-77" value="On-Premises" style="text;strokeColor=none;align=center;fillColor=none;html=1;verticalAlign=middle;whiteSpace=wrap;rounded=0;" parent="1" vertex="1">
          <mxGeometry x="10" y="483" width="80" height="30" as="geometry" />
        </mxCell>
        <mxCell id="OoP7FD-r4KorU-pFO8hX-78" value="Transit Gateway" style="text;strokeColor=none;align=center;fillColor=none;html=1;verticalAlign=middle;whiteSpace=wrap;rounded=0;" parent="1" vertex="1">
          <mxGeometry x="130.5" y="790" width="60" height="30" as="geometry" />
        </mxCell>
        <mxCell id="OoP7FD-r4KorU-pFO8hX-79" value="DNS Services" style="text;strokeColor=none;align=center;fillColor=none;html=1;verticalAlign=middle;whiteSpace=wrap;rounded=0;" parent="1" vertex="1">
          <mxGeometry x="343" y="1110" width="60" height="30" as="geometry" />
        </mxCell>
        <mxCell id="OoP7FD-r4KorU-pFO8hX-112" style="edgeStyle=orthogonalEdgeStyle;rounded=0;orthogonalLoop=1;jettySize=auto;html=1;exitX=0.5;exitY=1;exitDx=0;exitDy=0;strokeColor=#B5739D;" parent="1" source="OoP7FD-r4KorU-pFO8hX-61" edge="1">
          <mxGeometry relative="1" as="geometry">
            <mxPoint x="750" y="200" as="targetPoint" />
            <mxPoint x="420" y="301" as="sourcePoint" />
            <Array as="points">
              <mxPoint x="380" y="270" />
              <mxPoint x="720" y="270" />
            </Array>
          </mxGeometry>
        </mxCell>
        <mxCell id="OoP7FD-r4KorU-pFO8hX-86" value="Virtual server" style="text;strokeColor=none;align=center;fillColor=none;html=1;verticalAlign=middle;whiteSpace=wrap;rounded=0;" parent="1" vertex="1">
          <mxGeometry x="430" y="624" width="60" height="30" as="geometry" />
        </mxCell>
        <mxCell id="OoP7FD-r4KorU-pFO8hX-128" value="" style="endArrow=classic;html=1;rounded=0;strokeColor=#FFD966;" parent="1" edge="1">
          <mxGeometry width="50" height="50" relative="1" as="geometry">
            <mxPoint x="424" y="91.58139534883719" as="sourcePoint" />
            <mxPoint x="144" y="680" as="targetPoint" />
            <Array as="points">
              <mxPoint x="144" y="93" />
            </Array>
          </mxGeometry>
        </mxCell>
        <mxCell id="OoP7FD-r4KorU-pFO8hX-129" value="" style="endArrow=classic;html=1;rounded=0;strokeColor=#B5739D;" parent="1" edge="1">
          <mxGeometry width="50" height="50" relative="1" as="geometry">
            <mxPoint x="420" y="114" as="sourcePoint" />
            <mxPoint x="160" y="680" as="targetPoint" />
            <Array as="points">
              <mxPoint x="160" y="116" />
            </Array>
          </mxGeometry>
        </mxCell>
        <mxCell id="OoP7FD-r4KorU-pFO8hX-130" value="" style="endArrow=classic;html=1;rounded=0;exitX=0.5;exitY=1;exitDx=0;exitDy=0;strokeColor=#B5739D;" parent="1" source="OoP7FD-r4KorU-pFO8hX-51" edge="1">
          <mxGeometry width="50" height="50" relative="1" as="geometry">
            <mxPoint x="510" y="400" as="sourcePoint" />
            <mxPoint x="750" y="230" as="targetPoint" />
            <Array as="points">
              <mxPoint x="390" y="510" />
              <mxPoint x="700" y="510" />
              <mxPoint x="700" y="230" />
            </Array>
          </mxGeometry>
        </mxCell>
        <mxCell id="OoP7FD-r4KorU-pFO8hX-132" value="" style="endArrow=none;html=1;rounded=0;exitX=0.5;exitY=1;exitDx=0;exitDy=0;strokeColor=#B5739D;" parent="1" source="OoP7FD-r4KorU-pFO8hX-50" edge="1">
          <mxGeometry width="50" height="50" relative="1" as="geometry">
            <mxPoint x="510" y="440" as="sourcePoint" />
            <mxPoint x="640" y="120" as="targetPoint" />
            <Array as="points">
              <mxPoint x="507" y="500" />
              <mxPoint x="590" y="500" />
              <mxPoint x="640" y="500" />
              <mxPoint x="640" y="480" />
            </Array>
          </mxGeometry>
        </mxCell>
        <mxCell id="OoP7FD-r4KorU-pFO8hX-133" value="" style="endArrow=classic;html=1;rounded=0;strokeColor=#B5739D;" parent="1" edge="1">
          <mxGeometry width="50" height="50" relative="1" as="geometry">
            <mxPoint x="640" y="120" as="sourcePoint" />
            <mxPoint x="750" y="120" as="targetPoint" />
          </mxGeometry>
        </mxCell>
        <mxCell id="OoP7FD-r4KorU-pFO8hX-136" value="" style="endArrow=classic;html=1;rounded=0;exitX=0.5;exitY=1;exitDx=0;exitDy=0;strokeColor=#B5739D;" parent="1" source="OoP7FD-r4KorU-pFO8hX-81" edge="1">
          <mxGeometry width="50" height="50" relative="1" as="geometry">
            <mxPoint x="510" y="830" as="sourcePoint" />
            <mxPoint x="750" y="330" as="targetPoint" />
            <Array as="points">
              <mxPoint x="426" y="1090" />
              <mxPoint x="710" y="1090" />
              <mxPoint x="710" y="330" />
            </Array>
          </mxGeometry>
        </mxCell>
        <mxCell id="OoP7FD-r4KorU-pFO8hX-137" value="" style="endArrow=classic;html=1;rounded=0;exitX=0.392;exitY=1.005;exitDx=0;exitDy=0;exitPerimeter=0;strokeColor=#B5739D;" parent="1" source="OoP7FD-r4KorU-pFO8hX-31" edge="1">
          <mxGeometry width="50" height="50" relative="1" as="geometry">
            <mxPoint x="510" y="780" as="sourcePoint" />
            <mxPoint x="750" y="420" as="targetPoint" />
            <Array as="points">
              <mxPoint x="461" y="1070" />
              <mxPoint x="720" y="1070" />
              <mxPoint x="720" y="420" />
            </Array>
          </mxGeometry>
        </mxCell>
        <mxCell id="OoP7FD-r4KorU-pFO8hX-138" value="" style="endArrow=classic;html=1;rounded=0;exitX=0.617;exitY=0.99;exitDx=0;exitDy=0;exitPerimeter=0;strokeColor=#B5739D;" parent="1" source="OoP7FD-r4KorU-pFO8hX-31" edge="1">
          <mxGeometry width="50" height="50" relative="1" as="geometry">
            <mxPoint x="510" y="650" as="sourcePoint" />
            <mxPoint x="750" y="530" as="targetPoint" />
            <Array as="points">
              <mxPoint x="542" y="1050" />
              <mxPoint x="730" y="1050" />
              <mxPoint x="730" y="530" />
            </Array>
          </mxGeometry>
        </mxCell>
        <mxCell id="OoP7FD-r4KorU-pFO8hX-139" value="" style="endArrow=classic;html=1;rounded=0;strokeColor=#B5739D;" parent="1" edge="1">
          <mxGeometry width="50" height="50" relative="1" as="geometry">
            <mxPoint x="593" y="910" as="sourcePoint" />
            <mxPoint x="753" y="640" as="targetPoint" />
            <Array as="points">
              <mxPoint x="593" y="1020" />
              <mxPoint x="740" y="1020" />
              <mxPoint x="740" y="640" />
            </Array>
          </mxGeometry>
        </mxCell>
        <mxCell id="OoP7FD-r4KorU-pFO8hX-140" value="" style="endArrow=none;html=1;rounded=0;strokeColor=#FFD966;" parent="1" edge="1">
          <mxGeometry width="50" height="50" relative="1" as="geometry">
            <mxPoint x="144" y="329" as="sourcePoint" />
            <mxPoint x="434" y="330" as="targetPoint" />
          </mxGeometry>
        </mxCell>
        <mxCell id="OoP7FD-r4KorU-pFO8hX-141" value="" style="endArrow=none;html=1;rounded=0;strokeColor=#B5739D;" parent="1" edge="1">
          <mxGeometry width="50" height="50" relative="1" as="geometry">
            <mxPoint x="159" y="350" as="sourcePoint" />
            <mxPoint x="430" y="350" as="targetPoint" />
            <Array as="points" />
          </mxGeometry>
        </mxCell>
        <mxCell id="OoP7FD-r4KorU-pFO8hX-143" value="" style="endArrow=none;html=1;rounded=0;strokeColor=#FFD966;" parent="1" edge="1">
          <mxGeometry width="50" height="50" relative="1" as="geometry">
            <mxPoint x="143" y="572" as="sourcePoint" />
            <mxPoint x="437" y="572.256329113924" as="targetPoint" />
          </mxGeometry>
        </mxCell>
        <mxCell id="OoP7FD-r4KorU-pFO8hX-144" value="" style="endArrow=none;html=1;rounded=0;strokeColor=#B5739D;" parent="1" edge="1">
          <mxGeometry width="50" height="50" relative="1" as="geometry">
            <mxPoint x="160" y="590" as="sourcePoint" />
            <mxPoint x="438" y="590" as="targetPoint" />
          </mxGeometry>
        </mxCell>
        <mxCell id="OoP7FD-r4KorU-pFO8hX-146" value="" style="endArrow=classic;html=1;rounded=0;" parent="1" edge="1">
          <mxGeometry width="50" height="50" relative="1" as="geometry">
            <mxPoint x="180" y="140" as="sourcePoint" />
            <mxPoint x="180" y="680" as="targetPoint" />
          </mxGeometry>
        </mxCell>
        <mxCell id="OoP7FD-r4KorU-pFO8hX-147" value="" style="endArrow=classic;html=1;rounded=0;entryX=-0.004;entryY=0.495;entryDx=0;entryDy=0;entryPerimeter=0;" parent="1" target="OoP7FD-r4KorU-pFO8hX-7" edge="1">
          <mxGeometry width="50" height="50" relative="1" as="geometry">
            <mxPoint x="180" y="140" as="sourcePoint" />
            <mxPoint x="560" y="430" as="targetPoint" />
          </mxGeometry>
        </mxCell>
        <mxCell id="OoP7FD-r4KorU-pFO8hX-148" value="" style="endArrow=classic;html=1;rounded=0;entryX=0.008;entryY=0.455;entryDx=0;entryDy=0;entryPerimeter=0;" parent="1" target="OoP7FD-r4KorU-pFO8hX-14" edge="1">
          <mxGeometry width="50" height="50" relative="1" as="geometry">
            <mxPoint x="180" y="370" as="sourcePoint" />
            <mxPoint x="560" y="430" as="targetPoint" />
          </mxGeometry>
        </mxCell>
        <mxCell id="OoP7FD-r4KorU-pFO8hX-149" value="" style="endArrow=classic;html=1;rounded=0;entryX=-0.004;entryY=0.5;entryDx=0;entryDy=0;entryPerimeter=0;" parent="1" edge="1">
          <mxGeometry width="50" height="50" relative="1" as="geometry">
            <mxPoint x="180" y="614" as="sourcePoint" />
            <mxPoint x="318.96000000000004" y="614" as="targetPoint" />
          </mxGeometry>
        </mxCell>
        <mxCell id="OoP7FD-r4KorU-pFO8hX-151" value="" style="endArrow=none;html=1;rounded=0;strokeColor=#FFD966;" parent="1" edge="1">
          <mxGeometry width="50" height="50" relative="1" as="geometry">
            <mxPoint x="140" y="980" as="sourcePoint" />
            <mxPoint x="140" y="833" as="targetPoint" />
          </mxGeometry>
        </mxCell>
        <mxCell id="OoP7FD-r4KorU-pFO8hX-152" value="" style="endArrow=classic;html=1;rounded=0;strokeColor=#FFD966;entryX=0;entryY=0.75;entryDx=0;entryDy=0;" parent="1" target="OoP7FD-r4KorU-pFO8hX-49" edge="1">
          <mxGeometry width="50" height="50" relative="1" as="geometry">
            <mxPoint x="140" y="980" as="sourcePoint" />
            <mxPoint x="240" y="1010" as="targetPoint" />
          </mxGeometry>
        </mxCell>
        <mxCell id="OoP7FD-r4KorU-pFO8hX-153" value="" style="endArrow=none;html=1;rounded=0;strokeColor=#B5739D;" parent="1" edge="1">
          <mxGeometry width="50" height="50" relative="1" as="geometry">
            <mxPoint x="160" y="836" as="sourcePoint" />
            <mxPoint x="160" y="873" as="targetPoint" />
          </mxGeometry>
        </mxCell>
        <mxCell id="OoP7FD-r4KorU-pFO8hX-154" value="" style="endArrow=classic;html=1;rounded=0;strokeColor=#B5739D;" parent="1" edge="1">
          <mxGeometry width="50" height="50" relative="1" as="geometry">
            <mxPoint x="160" y="873" as="sourcePoint" />
            <mxPoint x="390" y="873" as="targetPoint" />
          </mxGeometry>
        </mxCell>
        <mxCell id="OoP7FD-r4KorU-pFO8hX-155" value="" style="endArrow=classic;html=1;rounded=0;entryX=-0.003;entryY=0.505;entryDx=0;entryDy=0;entryPerimeter=0;" parent="1" target="OoP7FD-r4KorU-pFO8hX-31" edge="1">
          <mxGeometry width="50" height="50" relative="1" as="geometry">
            <mxPoint x="180" y="834" as="sourcePoint" />
            <mxPoint x="316.03999999999996" y="881" as="targetPoint" />
            <Array as="points">
              <mxPoint x="180" y="900" />
            </Array>
          </mxGeometry>
        </mxCell>
        <mxCell id="WBEsngWCBf7xGp5zz9RN-1" value="" style="endArrow=classic;html=1;rounded=0;" parent="1" edge="1">
          <mxGeometry width="50" height="50" relative="1" as="geometry">
            <mxPoint x="376" y="990" as="sourcePoint" />
            <mxPoint x="376" y="1040" as="targetPoint" />
          </mxGeometry>
        </mxCell>
        <mxCell id="OoP7FD-r4KorU-pFO8hX-163" value="" style="endArrow=none;html=1;rounded=0;strokeColor=#B5739D;" parent="1" edge="1">
          <mxGeometry width="50" height="50" relative="1" as="geometry">
            <mxPoint x="890" y="355" as="sourcePoint" />
            <mxPoint x="1003" y="354.5" as="targetPoint" />
          </mxGeometry>
        </mxCell>
        <mxCell id="4nj1p8xolts54j1RJy8P-5" value="" style="group" parent="1" vertex="1" connectable="0">
          <mxGeometry x="890" y="290" width="390" height="203" as="geometry" />
        </mxCell>
        <mxCell id="OoP7FD-r4KorU-pFO8hX-162" value="" style="endArrow=none;html=1;rounded=0;" parent="4nj1p8xolts54j1RJy8P-5" edge="1">
          <mxGeometry width="50" height="50" relative="1" as="geometry">
            <mxPoint y="125" as="sourcePoint" />
            <mxPoint x="113" y="124.5" as="targetPoint" />
          </mxGeometry>
        </mxCell>
        <mxCell id="OoP7FD-r4KorU-pFO8hX-164" value="" style="endArrow=none;html=1;rounded=0;strokeColor=#FFD966;" parent="4nj1p8xolts54j1RJy8P-5" edge="1">
          <mxGeometry width="50" height="50" relative="1" as="geometry">
            <mxPoint y="95" as="sourcePoint" />
            <mxPoint x="110" y="95" as="targetPoint" />
          </mxGeometry>
        </mxCell>
        <mxCell id="mAz2V1ivWhlV0xTh-bx7-4" value="&lt;b&gt;Legend&lt;/b&gt;" style="text;strokeColor=none;align=left;fillColor=none;html=1;verticalAlign=middle;whiteSpace=wrap;rounded=0;" parent="4nj1p8xolts54j1RJy8P-5" vertex="1">
          <mxGeometry width="60" height="30" as="geometry" />
        </mxCell>
        <mxCell id="4nj1p8xolts54j1RJy8P-7" value="" style="group;align=left;" parent="4nj1p8xolts54j1RJy8P-5" vertex="1" connectable="0">
          <mxGeometry x="120" y="50" width="250" height="90" as="geometry" />
        </mxCell>
        <mxCell id="OoP7FD-r4KorU-pFO8hX-165" value="Data path" style="text;strokeColor=none;align=left;fillColor=none;html=1;verticalAlign=middle;whiteSpace=wrap;rounded=0;" parent="4nj1p8xolts54j1RJy8P-7" vertex="1">
          <mxGeometry width="60" height="30" as="geometry" />
        </mxCell>
        <mxCell id="OoP7FD-r4KorU-pFO8hX-167" value="Direct Link / Transit Gateway connection path" style="text;strokeColor=none;align=left;fillColor=none;html=1;verticalAlign=middle;whiteSpace=wrap;rounded=0;" parent="4nj1p8xolts54j1RJy8P-7" vertex="1">
          <mxGeometry y="60" width="250" height="30" as="geometry" />
        </mxCell>
        <mxCell id="4nj1p8xolts54j1RJy8P-10" value="DNS query" style="text;strokeColor=none;align=center;fillColor=none;html=1;verticalAlign=middle;whiteSpace=wrap;rounded=0;" parent="4nj1p8xolts54j1RJy8P-7" vertex="1">
          <mxGeometry y="30" width="70" height="30" as="geometry" />
        </mxCell>
        <mxCell id="4nj1p8xolts54j1RJy8P-1" value="&lt;div align=&quot;left&quot;&gt;IBM Cloud Business Support Service (BSS)&lt;br&gt;&lt;br&gt;IBM Cloud Object Storage (COS)&lt;br&gt;&lt;br&gt;IBM Cloud Identity and Access Management (IAM)&lt;br&gt;&lt;br&gt;IBM Cloud Databases (ICD)&lt;br&gt;&lt;br&gt;IBM Cloud Kubernetes Service (IKS)&lt;br&gt;&lt;/div&gt;" style="text;strokeColor=none;align=left;fillColor=none;html=1;verticalAlign=middle;whiteSpace=wrap;rounded=0;" parent="1" vertex="1">
          <mxGeometry x="890" y="493" width="390" height="30" as="geometry" />
        </mxCell>
      </root>
    </mxGraphModel>
  </diagram>
</mxfile>
